<?xml version="1.0" encoding="utf-8"?>
<!-- Generator: Adobe Illustrator 16.0.0, SVG Export Plug-In . SVG Version: 6.00 Build 0)  -->
<!DOCTYPE svg PUBLIC "-//W3C//DTD SVG 1.1//EN" "http://www.w3.org/Graphics/SVG/1.1/DTD/svg11.dtd">
<svg version="1.1" id="Capa_1" xmlns="http://www.w3.org/2000/svg" xmlns:xlink="http://www.w3.org/1999/xlink" x="0px" y="0px"
	 width="250px" height="115.555px" viewBox="0 0 250 115.555" enable-background="new 0 0 250 115.555" xml:space="preserve">
<g id="Capa_3">
	<path fill="#3E3B3F" d="M9.696,81.291c-0.691-1.664-1.138-2.292-2.422-2.446l-0.548-0.057c-0.199-0.18-0.176-0.601,0.059-0.743
		c0.878,0.06,1.833,0.08,3.12,0.08c1.322,0,2.368-0.021,3.625-0.08c0.212,0.115,0.274,0.563,0.067,0.743l-0.451,0.057
		c-1.143,0.154-1.383,0.327-1.41,0.574c0.058,0.301,0.58,1.91,1.496,4.188c1.381,3.479,2.752,6.917,4.249,10.336
		c0.929-1.979,2.193-5.063,2.875-6.654c0.868-2.034,2.275-5.417,2.788-6.705c0.24-0.631,0.26-0.955,0.26-1.163
		c0-0.216-0.292-0.447-1.339-0.574l-0.533-0.057c-0.216-0.18-0.162-0.628,0.054-0.743c0.836,0.06,1.976,0.08,3.117,0.08
		c0.982,0,1.914-0.021,2.905-0.08c0.208,0.115,0.208,0.587,0.054,0.743l-0.884,0.057c-0.728,0.065-1.174,0.421-1.57,1.053
		c-0.838,1.395-2.007,3.824-3.354,6.878l-1.616,3.688c-1.199,2.759-2.609,6.231-3.118,7.828c-0.089,0.053-0.207,0.088-0.322,0.088
		c-0.144,0-0.306-0.035-0.449-0.088c-0.336-1.261-0.866-2.729-1.375-3.988L9.696,81.291z"/>
	<path fill="#3E3B3F" d="M31.232,82.682c0-3.182-0.065-3.684-1.824-3.838l-0.75-0.057c-0.181-0.122-0.128-0.663,0.057-0.743
		c1.492,0.06,2.517,0.08,3.766,0.08c1.207,0,2.224-0.021,3.708-0.08c0.187,0.08,0.251,0.621,0.063,0.743l-0.749,0.057
		c-1.757,0.154-1.816,0.656-1.816,3.838v10.655c0,3.185,0.059,3.598,1.816,3.81l0.749,0.088c0.188,0.115,0.123,0.663-0.063,0.743
		c-1.485-0.051-2.501-0.08-3.708-0.08c-1.249,0-2.273,0.029-3.766,0.08c-0.185-0.08-0.238-0.563-0.057-0.743l0.75-0.088
		c1.759-0.212,1.824-0.625,1.824-3.81V82.682z"/>
	<path fill="#3E3B3F" d="M43.049,80.193c2.197-1.699,4.981-2.541,8.096-2.541c1.621,0,3.891,0.332,5.29,0.714
		c0.372,0.092,0.578,0.15,0.85,0.128c0.034,0.679,0.175,2.56,0.422,4.394c-0.158,0.208-0.603,0.244-0.811,0.062
		c-0.46-2.038-1.8-4.372-6.143-4.372c-4.584,0-8.476,2.896-8.476,9.104c0,6.29,3.988,9.765,8.896,9.765
		c3.863,0,5.566-2.517,6.26-4.282c0.211-0.151,0.655-0.093,0.771,0.114c-0.201,1.563-0.981,3.543-1.432,4.107
		c-0.362,0.061-0.718,0.185-1.043,0.303c-0.672,0.24-2.815,0.69-4.731,0.69c-2.696,0-5.272-0.54-7.455-2.012
		c-2.403-1.646-4.259-4.371-4.259-8.239C39.284,84.802,40.777,81.959,43.049,80.193"/>
	<path fill="#3E3B3F" d="M63.09,82.616c0-3.115-0.062-3.561-1.824-3.771l-0.478-0.057c-0.187-0.122-0.125-0.663,0.059-0.743
		c1.284,0.06,2.304,0.08,3.533,0.08h5.629c1.916,0,3.681,0,4.038-0.08c0.192,0.511,0.364,2.664,0.484,3.972
		c-0.12,0.176-0.6,0.237-0.755,0.061c-0.447-1.401-0.725-2.449-2.266-2.843c-0.632-0.146-1.594-0.178-2.903-0.178h-2.156
		c-0.903,0-0.903,0.063-0.903,1.206v5.979c0,0.844,0.093,0.844,0.994,0.844h1.733c1.252,0,2.191-0.063,2.542-0.188
		c0.363-0.121,0.578-0.295,0.718-1.044l0.246-1.229c0.145-0.183,0.654-0.183,0.77,0.03c0,0.719-0.116,1.886-0.116,3.027
		c0,1.078,0.116,2.218,0.116,2.877c-0.116,0.213-0.625,0.213-0.77,0.028l-0.27-1.165c-0.117-0.541-0.332-0.988-0.925-1.15
		c-0.419-0.114-1.14-0.144-2.311-0.144h-1.733c-0.9,0-0.994,0.027-0.994,0.804v4.231c0,1.584,0.093,2.604,0.567,3.112
		c0.364,0.354,0.987,0.693,3.629,0.693c2.307,0,3.17-0.13,3.822-0.446c0.551-0.306,1.351-1.353,2.136-2.912
		c0.21-0.152,0.628-0.062,0.739,0.208c-0.206,1.044-0.949,3.357-1.341,4.16c-2.696-0.051-5.355-0.082-8.023-0.082h-2.696
		c-1.291,0-2.311,0.031-4.077,0.082c-0.178-0.082-0.238-0.563-0.059-0.743l0.987-0.088c1.716-0.15,1.858-0.603,1.858-3.747V82.616z"
		/>
	<path fill="#3E3B3F" d="M97.142,92.794c0,0.907,0,4.474,0.09,5.246c-0.065,0.176-0.246,0.337-0.567,0.337
		c-0.361-0.516-1.232-1.559-3.838-4.532l-6.937-7.9c-0.815-0.933-2.855-3.386-3.479-4.048h-0.065
		c-0.115,0.356-0.148,1.049-0.148,1.94v6.533c0,1.414,0.033,5.308,0.538,6.211c0.191,0.322,0.782,0.501,1.528,0.564l0.931,0.088
		c0.185,0.238,0.16,0.604-0.051,0.743c-1.357-0.051-2.408-0.08-3.514-0.08c-1.258,0-2.063,0.029-3.113,0.08
		c-0.219-0.141-0.243-0.563-0.059-0.743l0.807-0.088c0.692-0.089,1.171-0.271,1.317-0.603c0.419-1.076,0.386-4.736,0.386-6.174
		v-8.658c0-0.838-0.028-1.45-0.662-2.149c-0.422-0.414-1.126-0.628-1.849-0.719l-0.516-0.057c-0.178-0.18-0.178-0.628,0.064-0.743
		c1.258,0.08,2.839,0.08,3.382,0.08c0.487,0,0.988-0.021,1.381-0.08c0.604,1.519,4.136,5.469,5.121,6.577l2.902,3.259
		c2.065,2.319,3.536,3.991,4.948,5.43h0.054c0.122-0.147,0.122-0.631,0.122-1.253V85.64c0-1.406-0.031-5.293-0.607-6.196
		c-0.181-0.271-0.657-0.444-1.847-0.6l-0.517-0.057c-0.2-0.18-0.175-0.663,0.061-0.743c1.382,0.06,2.394,0.08,3.535,0.08
		c1.29,0,2.068-0.021,3.094-0.08c0.235,0.144,0.235,0.563,0.056,0.743l-0.425,0.057c-0.96,0.154-1.551,0.39-1.672,0.634
		c-0.52,1.073-0.45,4.792-0.45,6.162L97.142,92.794L97.142,92.794z"/>
	<path fill="#3E3B3F" d="M112.112,93.4c0,3.146,0.065,3.599,1.795,3.748l0.965,0.087c0.18,0.115,0.116,0.661-0.059,0.743
		c-1.71-0.051-2.73-0.082-3.929-0.082c-1.196,0-2.237,0.031-4.158,0.082c-0.181-0.082-0.237-0.594,0-0.743l1.083-0.087
		c1.698-0.149,1.842-0.602,1.842-3.748V80.015c0-0.927,0-0.959-0.888-0.959h-1.646c-1.289,0-2.936,0.063-3.688,0.749
		c-0.713,0.657-1.017,1.308-1.336,2.064c-0.243,0.169-0.67,0.026-0.786-0.217c0.481-1.341,0.919-3.257,1.14-4.449
		c0.09-0.063,0.472-0.096,0.565,0c0.187,0.956,1.169,0.923,2.551,0.923h12.127c1.609,0,1.892-0.059,2.326-0.841
		c0.156-0.055,0.49-0.022,0.543,0.093c-0.324,1.229-0.543,3.649-0.456,4.553c-0.106,0.234-0.622,0.234-0.775,0.057
		c-0.084-0.754-0.291-1.849-0.746-2.183c-0.69-0.507-1.824-0.749-3.471-0.749h-2.128c-0.899,0-0.871,0.032-0.871,1.021V93.4z"/>
	<path fill="#3E3B3F" d="M125.144,82.616c0-3.115-0.057-3.561-1.821-3.771l-0.487-0.057c-0.179-0.122-0.123-0.663,0.059-0.743
		c1.292,0.06,2.308,0.08,3.542,0.08h5.614c1.917,0,3.688,0,4.058-0.08c0.177,0.511,0.351,2.664,0.466,3.972
		c-0.115,0.176-0.589,0.237-0.745,0.061c-0.441-1.401-0.712-2.449-2.271-2.843c-0.635-0.146-1.588-0.178-2.91-0.178h-2.153
		c-0.892,0-0.892,0.063-0.892,1.206v5.979c0,0.844,0.082,0.844,0.979,0.844h1.735c1.262,0,2.186-0.063,2.543-0.188
		c0.367-0.121,0.572-0.295,0.726-1.044l0.238-1.229c0.146-0.183,0.661-0.183,0.78,0.03c0,0.719-0.119,1.886-0.119,3.027
		c0,1.078,0.119,2.218,0.119,2.877c-0.119,0.213-0.637,0.213-0.78,0.028l-0.269-1.165c-0.123-0.541-0.328-0.988-0.932-1.15
		c-0.416-0.114-1.133-0.144-2.309-0.144h-1.734c-0.896,0-0.98,0.027-0.98,0.804v4.231c0,1.584,0.084,2.604,0.56,3.112
		c0.36,0.354,0.991,0.693,3.624,0.693c2.313,0,3.188-0.13,3.837-0.446c0.547-0.306,1.341-1.353,2.126-2.912
		c0.211-0.152,0.633-0.062,0.749,0.208c-0.212,1.044-0.958,3.357-1.347,4.16c-2.694-0.051-5.365-0.082-8.028-0.082h-2.685
		c-1.293,0-2.313,0.031-4.078,0.082c-0.182-0.082-0.239-0.563-0.066-0.743l0.99-0.088c1.708-0.15,1.859-0.603,1.859-3.747
		L125.144,82.616L125.144,82.616z"/>
	<path fill="#3E3B3F" d="M151.014,82.616c0-3.139-0.063-3.617-1.943-3.771l-0.747-0.057c-0.185-0.122-0.121-0.663,0.055-0.743
		c1.681,0.06,2.701,0.08,3.899,0.08c1.164,0,2.179-0.021,3.685-0.08c0.177,0.08,0.241,0.621,0.06,0.743l-0.721,0.057
		c-1.766,0.154-1.83,0.634-1.83,3.771v10.43c0,1.883,0.09,2.661,0.633,3.229c0.326,0.326,0.897,0.693,3.269,0.693
		c2.544,0,3.171-0.13,3.651-0.387c0.598-0.365,1.381-1.44,1.977-2.973c0.186-0.152,0.74-0.027,0.74,0.184
		c0,0.327-0.828,3.383-1.248,4.186c-1.529-0.051-4.374-0.082-7.459-0.082h-2.754c-1.266,0-2.221,0.031-3.9,0.082
		c-0.176-0.082-0.238-0.563-0.055-0.743l0.894-0.088c1.733-0.179,1.798-0.603,1.798-3.747V82.616H151.014z"/>
	<path fill="#3E3B3F" d="M165.206,88.213c0-5.988,4.497-10.563,10.667-10.563c6.917,0,10.391,4.989,10.391,10.268
		c0,6.052-4.611,10.46-10.391,10.46C169.225,98.378,165.206,93.61,165.206,88.213 M183.271,88.851
		c0-4.952-2.188-10.275-7.902-10.275c-3.122,0-7.163,2.134-7.163,8.687c0,4.432,2.159,10.184,8.062,10.184
		C179.864,97.445,183.271,94.746,183.271,88.851"/>
	<path fill="#3E3B3F" d="M194.386,93.4c0,3.146,0.052,3.537,1.976,3.748l0.809,0.087c0.174,0.149,0.12,0.661-0.061,0.743
		c-1.709-0.051-2.7-0.082-3.892-0.082c-1.269,0-2.347,0.031-3.657,0.082c-0.187-0.082-0.244-0.563-0.063-0.743l0.632-0.087
		c1.731-0.241,1.796-0.602,1.796-3.748V82.346c0-2.541-0.063-3.048-1.406-3.197l-1.084-0.12c-0.211-0.185-0.18-0.632,0.063-0.75
		c1.59-0.21,3.447-0.233,5.938-0.233c2.485,0,4.342,0.321,5.752,1.188c1.359,0.872,2.383,2.42,2.383,4.489
		c0,2.758-1.707,4.132-2.99,4.76c-1.314,0.632-2.898,0.9-4.139,0.9c-0.201-0.088-0.201-0.532-0.022-0.594
		c3.235-0.598,4.401-2.432,4.401-5.035c0-2.905-1.702-4.783-4.821-4.783c-1.589,0-1.61,0.117-1.61,1.069V93.4H194.386z"/>
	<path fill="#3E3B3F" d="M208.456,82.616c0-3.115-0.063-3.561-1.828-3.771l-0.483-0.057c-0.172-0.122-0.115-0.663,0.065-0.743
		c1.289,0.06,2.308,0.08,3.531,0.08h5.628c1.92,0,3.682,0,4.05-0.08c0.177,0.511,0.36,2.664,0.476,3.972
		c-0.113,0.176-0.604,0.237-0.74,0.061c-0.449-1.401-0.721-2.449-2.279-2.843c-0.628-0.146-1.596-0.178-2.902-0.178h-2.164
		c-0.896,0-0.896,0.063-0.896,1.206v5.979c0,0.844,0.09,0.844,0.987,0.844h1.742c1.258,0,2.187-0.063,2.543-0.188
		c0.358-0.121,0.563-0.295,0.725-1.044l0.229-1.229c0.152-0.183,0.666-0.183,0.783,0.03c0,0.719-0.117,1.886-0.117,3.027
		c0,1.078,0.117,2.218,0.117,2.877c-0.117,0.213-0.631,0.213-0.783,0.028l-0.263-1.165c-0.127-0.541-0.331-0.988-0.928-1.15
		c-0.423-0.114-1.136-0.144-2.306-0.144H211.9c-0.897,0-0.987,0.027-0.987,0.804v4.231c0,1.584,0.09,2.604,0.567,3.112
		c0.361,0.354,0.99,0.693,3.623,0.693c2.311,0,3.174-0.13,3.838-0.446c0.545-0.306,1.336-1.353,2.121-2.912
		c0.207-0.152,0.629-0.062,0.748,0.208c-0.209,1.044-0.959,3.357-1.344,4.16c-2.691-0.051-5.363-0.082-8.025-0.082h-2.698
		c-1.285,0-2.308,0.031-4.071,0.082c-0.18-0.082-0.24-0.563-0.063-0.743l0.992-0.088c1.696-0.15,1.855-0.603,1.855-3.747
		L208.456,82.616L208.456,82.616z"/>
	<path fill="#3E3B3F" d="M233.102,84.351c1.564-2.218,2.434-3.355,2.908-4.245c0.208-0.356,0.357-0.604,0.357-0.809
		c0-0.148-0.29-0.241-1.077-0.241h-4.466c-2.393,0-3.734,0.209-4.463,0.984c-0.625,0.692-1.071,1.521-1.314,2.035
		c-0.268,0.115-0.632,0.026-0.757-0.206c0.366-1.059,0.88-2.843,1.235-4.491c0.113-0.093,0.354-0.093,0.515,0
		c0.079,0.726,0.535,0.746,2.955,0.746h7.913c2.146,0,3.111-0.021,3.433-0.08c0.122,0.023,0.183,0.144,0.183,0.269
		c-0.805,0.687-3.344,4.15-4.908,6.401l-4.934,7.131c-0.33,0.479-2.977,4.193-2.977,4.646c0,0.291,0.297,0.348,0.854,0.414
		c0.768,0.063,2.324,0.063,4.424,0.063c1.918,0,4.408-0.063,5.541-0.693c0.867-0.479,1.584-1.584,2.092-2.755
		c0.271-0.091,0.662-0.063,0.748,0.206c-0.27,1.381-0.866,3.509-1.342,4.252c-1.645-0.051-3.354-0.082-5.449-0.082h-7.704
		c-1.577,0-2.661,0.058-3.351,0.082c-0.121-0.051-0.149-0.206-0.149-0.353c0.625-0.598,2.34-2.731,3.265-4.077L233.102,84.351z"/>
</g>
<g id="Capa_1_1_">
	<rect x="6.968" y="110.527" fill="#3E3B3F" width="237.813" height="1.76"/>
	<g>
		<path fill="#3E3B3F" d="M244.779,64.194h-38.004c7.207-3.095,12.299-9.655,12.299-18.284c0-9.884-7.475-20.29-22.061-20.29
			c-14.676,0-22.063,10.495-22.063,20.29c0,8.629,5.049,15.189,12.231,18.284H172.63c-4.003,0-4.003-2.449-4.003-7.434V31.31v-4.266
			c0-0.896,0-1.424-0.799-1.424c-0.712,0-1.158,0.625-1.604,1.155c-1.425,1.69-5.252,4.002-7.386,4.623
			c-0.8,0.27-2.047,0.447-2.047,1.514c0,0.716,0.619,0.716,2.224,0.716c3.024,0,3.467,0.891,3.467,6.399V56.76
			c0,5.33,0,7.434-4.002,7.434c-0.26,0-0.558-0.008-0.854,0h-14.484c-0.34-0.009-0.664,0-0.908,0c-4.452,0-4.592-2.811-4.592-7.434
			V42.696c0-3.909,0-5.952,2.045-8.891c1.072-1.337,2.582-3.206,4.541-3.206c1.246,0,1.959,0.799,2.67,1.69
			c0.703,0.799,1.507,1.69,3.022,1.69c2.138,0,3.731-1.336,3.731-3.562c0-2.664-2.396-4.271-5.067-4.271
			c-3.022,0-5.423,1.784-7.198,3.564c-1.779,1.773-2.853,3.552-3.303,3.552c-0.441,0-0.441-0.438-0.441-1.868v-4.354
			c0-0.896,0-1.424-0.795-1.424c-0.711,0-1.162,0.71-1.607,1.155c-1.424,1.69-5.246,4.002-7.379,4.623
			c-0.803,0.27-2.045,0.447-2.045,1.514c0,0.716,0.619,0.716,2.219,0.716c3.029,0,3.472,0.891,3.472,6.399v16.732
			c0,4.623-0.143,7.434-4.146,7.434c-0.26,0-0.547-0.008-0.829,0h-15.465c-0.127,0-0.249,0-0.362,0
			c-4.296,0-4.144-2.447-4.144-7.434V4.891c0-0.978,0-1.422-0.71-1.422c-0.713,0-1.515,0.621-1.957,0.975
			c-1.958,1.604-5.516,2.316-8.01,2.763c-0.537,0.085-1.249,0.354-1.249,0.975c0,0.805,0.712,0.894,1.421,0.894
			c4.359,0,4.359,0.535,4.359,7.21v40.478c0,5.33,0.189,7.12-4.028,7.375c-0.616,0.037-1.081,0.05-1.436,0.059
			c-2.01-0.001-2.54-0.031-4.534-0.504c-3.036-0.706-3.612-3.104-4.768-5.854C79.242,42.609,72.834,27.397,66.522,12.18
			c-0.533-1.243-0.888-2.485-1.513-2.485c-0.716,0-1.243,1.781-1.513,2.485c-5.78,14.236-11.568,28.386-17.348,42.538
			c-2.049,5.067-3.309,8.021-6.186,8.971c-1.332,0.444-2.739,0.473-4.535,0.473H6.968v1.76h30.758v-0.02
			c2.223-0.026,5.304-0.074,7.09-0.074c2.488,0,5.157,0.204,7.649,0.204c0.886,0,1.954-0.11,1.954-1.185
			c0-0.976-1.602-1.065-2.76-1.065c-2.209,0-4.885,0-4.885-2.489c0-1.342,0.8-3.291,1.239-4.532l10.949-26.87
			c1.244-2.931,3.285-8.368,3.642-8.368c0.358,0,2.5,5.438,3.744,8.368l12.187,28.922c0.438,1.048,1.148,2.301,1.148,3.555
			c0,1.505-3.635,1.505-4.445,1.505c-0.71,0-1.779,0.179-1.779,1.16v0.086c0,1.074,0.802,1.074,1.694,1.074
			c0.348,0,0.756-0.014,1.187-0.032h168.439V64.194z M196.927,27.309c10.323,0,15.388,10.236,15.388,19.217
			c0,8.46-5.422,17.821-14.942,17.821h-0.095c-10.047,0-15.65-10.087-15.65-18.892C181.626,36.384,187.143,27.309,196.927,27.309z"
			/>
		<path fill="#3E3B3F" d="M162.752,21.189h0.089c0.618,0,2.045-0.71,2.576-0.979l12.897-6.411c1.687-0.887,4.453-1.78,4.453-4.002
			c0-1.239-1.069-2.222-2.228-2.222c-1.688,0-3.466,1.425-4.709,2.401l-11.834,8.808c-0.358,0.27-1.782,0.975-1.782,1.694
			C162.216,20.832,162.48,21.189,162.752,21.189z"/>
	</g>
</g>
<g id="Capa_2">
	<path fill="#3C6D34" d="M56.119,44.055c0,0,6.496,1.473,8.127,7.585C68.081,65.994,50.1,87.495,50.1,87.495
		s10.148-20.22,9.855-32.607C59.771,46.654,56.119,44.055,56.119,44.055"/>
	<path fill="#459443" d="M65.886,55.974c0.035,13.571-14.624,30.44-15.694,31.659c-0.02,0.021-0.038,0.041-0.038,0.041
		s5.707-1.914,9.246-3.703c4.538-2.29,8.534-4.347,11.305-9.733C75.746,64.421,67.318,57.111,65.886,55.974"/>
</g>
</svg>
